<svg width="254" height="50" viewBox="0 0 254 50" fill="none" xmlns="http://www.w3.org/2000/svg">
<path d="M190.457 0.465332H207.335V4.17324H194.561V8.92697H203.447V12.6666H194.545V17.9591H207.351V21.6828H190.457V0.465332Z" fill="#9D9FA2"/>
<path d="M85.0998 21.6822H81.0576V8.75201C81.0576 8.75201 80.9959 8.70448 80.9497 8.68863C79.0829 10.5426 77.2161 12.3965 75.3184 14.298C73.4362 12.4282 71.5694 10.5743 69.6255 8.62525V21.6663H65.5371V0.0209961C68.8233 3.22184 72.0631 6.3593 75.3184 9.52846C78.5737 6.37515 81.8136 3.22184 85.0998 0.0209961V21.6822Z" fill="#9D9FA2"/>
<path d="M250.506 21.6828H246.433V12.7141H236.358V21.6828H232.285V0.465332H236.358V8.91113H246.402V0.481177H250.506V21.6828Z" fill="#9D9FA2"/>
<path d="M131.633 21.667V0.00585938C136.385 4.50606 141.09 8.94287 145.857 13.4431V0.465387H149.93V22.1424C145.179 17.658 140.504 13.2212 135.752 8.73688V21.6829H131.648L131.633 21.667Z" fill="#9D9FA2"/>
<path d="M124.35 0.465387H128.438V22.1424C123.687 17.658 118.996 13.2212 114.245 8.72103V21.6829H110.156V0.00585938C114.893 4.49021 119.598 8.92703 124.35 13.4272V0.465387Z" fill="#9D9FA2"/>
<path d="M173.348 21.6989C171.914 21.6989 170.54 21.6989 169.167 21.6989C169.044 21.6989 168.859 21.5246 168.797 21.3979C168.303 20.2887 167.841 19.1636 167.362 18.0386C167.285 17.8484 167.208 17.7058 166.961 17.7058C163.968 17.7058 160.975 17.7058 157.951 17.7058C157.38 19.021 156.825 20.3521 156.254 21.6989H151.842C151.981 21.3662 152.12 21.0651 152.243 20.7482C155.159 14.1247 158.09 7.4853 160.991 0.861765C161.129 0.544849 161.284 0.418084 161.623 0.43393C162.271 0.465621 162.919 0.465621 163.567 0.43393C163.876 0.43393 164.014 0.529004 164.153 0.814228C165.758 4.49045 167.378 8.15082 168.982 11.827C170.34 14.917 171.698 18.0069 173.071 21.0968C173.148 21.2711 173.225 21.4613 173.348 21.7306M165.773 14.1405C164.709 11.6052 163.66 9.11741 162.595 6.56624C161.515 9.13326 160.481 11.6052 159.417 14.1405H165.773Z" fill="#9D9FA2"/>
<path d="M108.395 21.699H106.529C105.788 21.699 105.048 21.699 104.307 21.699C104.06 21.699 103.937 21.6198 103.844 21.3821C103.397 20.2888 102.919 19.1954 102.471 18.1021C102.348 17.801 102.224 17.6742 101.885 17.6901C99.0615 17.7059 96.2382 17.6901 93.4149 17.6901C93.1063 17.6901 92.9675 17.7693 92.8441 18.0704C92.3967 19.1954 91.9184 20.2888 91.4401 21.398C91.3784 21.5247 91.2241 21.699 91.1161 21.699C89.7276 21.7149 88.3391 21.699 86.9043 21.699C87.0123 21.4455 87.074 21.2554 87.1666 21.0652C90.1287 14.3308 93.0909 7.61215 96.0531 0.877704C96.1919 0.544943 96.3616 0.402331 96.7165 0.418177C97.3645 0.449868 98.0124 0.434022 98.6604 0.418177C98.9381 0.418177 99.0924 0.497406 99.2004 0.766784C101.9 6.93079 104.631 13.0948 107.346 19.2588C107.686 20.0352 108.041 20.8275 108.411 21.6832M97.6884 6.70895C97.6884 6.70895 97.6113 6.70895 97.5804 6.70895C96.5468 9.18089 95.4977 11.6528 94.4486 14.1406H100.805C99.7558 11.637 98.7221 9.16504 97.673 6.70895" fill="#9D9FA2"/>
<path d="M229.537 17.7691C228.056 19.5438 226.312 20.7956 224.199 21.4612C220.11 22.7605 216.207 22.3168 212.69 19.7498C206.889 15.5348 206.734 7.18412 212.319 2.65223C217.148 -1.26167 224.615 -0.786299 228.935 3.69805C229.136 3.90405 229.321 4.12589 229.552 4.37942C228.426 5.18756 227.315 5.99569 226.174 6.81967C225.958 6.58198 225.772 6.32845 225.556 6.10661C222.779 3.1593 218.197 2.92161 215.173 5.59955C213.029 7.48519 212.088 9.86206 212.782 12.6984C213.507 15.6458 215.482 17.4363 218.29 18.1335C221.298 18.8783 223.921 18.0226 226.05 15.6616C226.096 15.5982 226.158 15.5507 226.204 15.5032C226.204 15.5032 226.235 15.5031 226.266 15.4873C227.331 16.2321 228.426 16.9927 229.552 17.7691" fill="#9D9FA2"/>
<path d="M181.293 4.17253V21.6821H177.204V4.18838H170.725V0.480469H187.711V4.17253H181.293Z" fill="#9D9FA2"/>
<path d="M252.156 21.6981C251.555 21.6981 251.061 21.2227 251.077 20.6365C251.077 20.0343 251.601 19.4797 252.141 19.4639C252.712 19.4639 253.252 20.0343 253.267 20.6365C253.267 21.2069 252.758 21.6981 252.156 21.6981ZM252.172 21.5238C252.666 21.5238 253.051 21.1277 253.051 20.6523C253.051 20.1294 252.588 19.6382 252.11 19.654C251.647 19.6699 251.246 20.1611 251.262 20.684C251.262 21.1594 251.678 21.5238 252.172 21.5238Z" fill="#9D9FA2"/>
<path d="M53.7986 49.5816V48.2347C53.7986 48.2347 53.8758 48.203 53.9221 48.1713C54.0763 48.5199 54.2306 48.8685 54.3849 49.2488C54.6472 48.916 54.5855 48.4407 54.9866 48.1079V49.5657C54.9866 49.5657 54.9249 49.5657 54.894 49.5816C54.8632 49.3122 54.8477 49.0428 54.8014 48.6467C54.6626 49.027 54.5546 49.3122 54.4003 49.7242C54.2306 49.328 54.1226 49.0428 53.9529 48.6625C53.9375 49.027 53.9066 49.2963 53.8912 49.5657C53.8603 49.5657 53.8141 49.5657 53.7832 49.5657" fill="#ACC42A"/>
<path d="M52.4861 49.1851C52.733 49.296 52.9181 49.4069 53.1032 49.4545C53.1804 49.4703 53.2884 49.3436 53.381 49.2802C53.3038 49.201 53.2421 49.09 53.165 49.0425C53.0878 48.995 52.949 49.0108 52.8718 48.9633C52.733 48.8523 52.625 48.7097 52.5016 48.583C52.6404 48.472 52.7793 48.3136 52.9335 48.2661C53.1804 48.2027 53.3964 48.2977 53.4889 48.6939C53.1958 48.472 52.949 48.2185 52.625 48.6305C52.7947 48.7097 52.9335 48.7573 53.057 48.8365C53.2267 48.9474 53.4118 49.0742 53.5507 49.2168C53.5815 49.2485 53.3964 49.5654 53.3038 49.5654C53.057 49.5654 52.8101 49.4862 52.5633 49.4069C52.517 49.4069 52.517 49.2802 52.4707 49.1851" fill="#ACC42A"/>
<path d="M252.416 20.9224C252.416 20.9224 252.508 21.065 252.585 21.1918C252.57 21.2076 252.539 21.2393 252.524 21.2552C252.354 21.0809 252.2 20.9066 251.984 20.6847C251.922 20.9382 251.891 21.0809 251.86 21.2393C251.829 21.2393 251.798 21.2393 251.768 21.2393V20.035C252.061 20.0667 252.416 19.8766 252.585 20.2727C252.647 20.4153 252.508 20.6372 252.416 20.9224Z" fill="#9D9FA2"/>
<mask id="mask0_330_189" style="mask-type:luminance" maskUnits="userSpaceOnUse" x="0" y="0" width="52" height="50">
<path d="M25.8573 27.3815C26.2584 28.6175 26.675 29.7584 27.0144 30.9151C27.9246 34.1159 28.3875 37.396 28.3103 40.7553C28.2795 41.9754 28.3103 43.2114 28.3103 44.4315V44.9544H23.3734C23.0648 38.9489 23.4197 33.0701 25.8573 27.3815ZM43.1829 3.08992C36.2249 6.43338 30.3622 11.1871 25.8264 17.6046C18.1433 6.65522 6.80373 1.64796 0.015428 0.0316915C0.015428 1.39443 0.0308559 2.74132 0 4.08821C0 4.46851 0.123424 4.62696 0.462839 4.73788C2.96217 5.51433 5.36893 6.49677 7.69855 7.73274C13.9469 11.0445 19.069 15.6239 22.9105 21.6929C23.0648 21.9305 23.0802 22.1207 22.9568 22.3901C22.3243 23.7528 21.7226 25.1314 21.1209 26.5258C20.9666 26.8744 20.8586 27.223 20.6889 27.635C20.5809 27.429 20.5038 27.2864 20.4421 27.1596C19.0381 24.0539 17.0942 21.3126 14.7183 18.9198C10.6762 14.8475 5.90891 11.9002 0.740542 9.58669C0.524551 9.49162 0.293131 9.41239 0.0462839 9.31731V49.6765H4.73639V16.749C5.8472 17.5254 6.88087 18.2068 7.86826 18.9357C10.6762 21.0273 13.1292 23.4834 14.9651 26.5258C17.3719 30.5348 18.3439 34.9716 18.4827 39.5986C18.5753 42.7836 18.5136 45.9527 18.5136 49.1377V49.6606H33.093V49.1219C33.093 46.6975 33.093 44.2889 33.093 41.8645C33.0776 39.5035 33.2318 37.1583 33.633 34.829C34.1884 31.6757 35.2529 28.7284 36.9654 26.0346C39.1562 22.5961 42.1183 19.9815 45.4199 17.7473C45.8828 17.4303 46.3456 17.1451 46.901 16.7807V49.6448H51.6374V9.30147C51.3288 9.41239 51.0666 9.50746 50.8043 9.61838C46.8239 11.3931 43.0903 13.6115 39.6807 16.4004C36.3329 19.1258 33.5713 22.3742 31.5965 26.304C31.3805 26.7318 31.2416 27.1755 31.0102 27.6667C30.9485 27.5083 30.8405 27.4132 30.7942 27.3181C30.1 25.7177 29.4366 24.1173 28.7269 22.5327C28.5726 22.1682 28.5726 21.9305 28.7732 21.6136C32.1827 16.2578 36.6414 12.0428 42.0104 8.82609C44.8954 7.0989 47.9501 5.76786 51.1437 4.76958C51.5294 4.64281 51.6991 4.48435 51.6683 4.04067C51.622 3.10577 51.6683 2.18672 51.6683 1.25182V0C48.7061 0.792288 45.8982 1.80642 43.1829 3.12162" fill="white"/>
</mask>
<g mask="url(#mask0_330_189)">
<path d="M51.6991 -0.0317383H0V49.6764H51.6991V-0.0317383Z" fill="url(#paint0_linear_330_189)"/>
<path d="M31.0735 27.8722C31.4284 29.1874 31.8141 30.4868 32.1072 31.802C32.8169 34.9078 33.1254 38.0611 33.0483 41.2619C32.9866 43.8765 33.0483 46.491 33.0483 49.1056C33.0483 49.676 33.0483 49.676 32.4775 49.676C28.0188 49.676 23.5755 49.676 19.1168 49.676C18.546 49.676 18.546 49.676 18.546 49.0739C18.546 45.7621 18.4689 42.4345 18.546 39.1227C18.6231 35.7634 19.194 32.4675 20.1505 29.2508C20.2894 28.7754 20.4436 28.3159 20.6905 27.8405C20.8756 28.3159 21.0762 28.7913 21.2459 29.2667C22.1716 31.8495 22.8041 34.5116 22.9738 37.2529C23.1281 39.6456 23.1127 42.0383 23.1744 44.4311C23.1898 45.1441 23.1744 45.1441 23.8841 45.1441C25.2109 45.1441 26.5377 45.1441 27.8645 45.1441C28.4353 45.1441 28.4353 45.1441 28.4353 44.542C28.4353 43.0366 28.4045 41.5313 28.4353 40.0259C28.5433 35.9536 29.2376 32.008 30.765 28.2208C30.8112 28.1099 30.8729 27.999 30.9192 27.8881C30.9501 27.8881 30.9964 27.6504 31.0118 27.6504C31.0272 27.6504 31.0427 27.8881 31.0735 27.8881" fill="#03B09F"/>
<path d="M25.8594 17.5886C26.7079 19.0147 27.8033 20.3933 28.5901 21.756C28.6518 21.867 28.6827 22.073 28.621 22.1839C27.7724 23.8318 26.7388 25.7967 25.8594 27.4605C25.8131 27.3337 23.9617 23.8635 23.2212 22.4532C23.0669 22.1522 23.0052 21.8986 23.1903 21.5817C23.9309 20.3775 25.7051 17.7629 25.8594 17.5728" fill="#03B09F"/>
</g>
<rect x="66.6077" y="30.6077" width="183.785" height="18.7846" rx="9.39228" stroke="#03B09F" stroke-width="1.21544"/>
<path d="M74.6117 44V38.0699H73.1033V36.3549H78.0623V38.0699H76.5643V44H74.6117ZM80.9139 44V36.3549H85.2427V38.0699H82.8665V39.258H85.1704V40.973H82.8665V42.285H85.2427V44H80.9139ZM88.0045 41.4689H89.9467C89.9467 42.3573 90.4943 42.5123 90.7422 42.5123C91.2071 42.5123 91.4861 42.1301 91.4861 41.7788C91.4861 41.3759 91.1658 41.2519 89.988 40.756C89.4508 40.539 88.1181 40.0018 88.1181 38.5658C88.1181 37.0264 89.5128 36.2103 90.7939 36.2103C91.8477 36.2103 93.3354 36.7475 93.3663 38.5865H91.4344C91.3931 38.3282 91.3311 37.8426 90.7319 37.8426C90.391 37.8426 90.0604 38.0802 90.0604 38.4418C90.0604 38.7931 90.267 38.8861 91.641 39.5059C93.0667 40.1465 93.4283 40.8077 93.4283 41.6961C93.4283 42.9152 92.7878 44.1446 90.7629 44.1446C88.7586 44.1446 87.9528 42.9669 88.0045 41.4689ZM97.3464 44V38.0699H95.838V36.3549H100.797V38.0699H99.299V44H97.3464ZM103.649 44V36.3549H105.601V44H103.649ZM110.852 44H109.054V36.3549H111.668L113.104 41.2829L114.499 36.3549H117.123V44H115.325L115.387 38.2765L113.734 44H112.443L110.79 38.2765L110.852 44ZM120.243 40.2704V40.2601C120.243 37.76 122.165 36.2103 124.273 36.2103C126.628 36.2103 128.312 38.0492 128.312 40.1775C128.312 42.3057 126.638 44.1446 124.262 44.1446C121.855 44.1446 120.243 42.2334 120.243 40.2704ZM122.196 40.1568V40.1671C122.196 41.3346 122.992 42.4297 124.304 42.4297C125.688 42.4297 126.36 41.1693 126.36 40.1878C126.36 39.196 125.688 37.9253 124.283 37.9253C122.93 37.9253 122.196 39.0823 122.196 40.1568ZM133.112 36.3549L136.046 41.0143L136.005 36.3549H137.875V44H136.18L133.256 39.3923L133.298 44H131.428V36.3549H133.112ZM141.333 44V36.3549H143.286V44H141.333ZM148.609 42.8946L148.258 44H146.14L149.167 36.3549H150.851L153.785 44H151.646L151.285 42.8946H148.609ZM150.779 41.3449L149.921 38.6794L149.095 41.3449H150.779ZM156.686 44V36.3549H158.639V42.285H160.901V44H156.686ZM163.301 41.4689H165.243C165.243 42.3573 165.791 42.5123 166.039 42.5123C166.504 42.5123 166.783 42.1301 166.783 41.7788C166.783 41.3759 166.462 41.2519 165.285 40.756C164.748 40.539 163.415 40.0018 163.415 38.5658C163.415 37.0264 164.809 36.2103 166.091 36.2103C167.144 36.2103 168.632 36.7475 168.663 38.5865H166.731C166.69 38.3282 166.628 37.8426 166.029 37.8426C165.688 37.8426 165.357 38.0802 165.357 38.4418C165.357 38.7931 165.564 38.8861 166.938 39.5059C168.363 40.1465 168.725 40.8077 168.725 41.6961C168.725 42.9152 168.084 44.1446 166.06 44.1446C164.055 44.1446 163.249 42.9669 163.301 41.4689ZM176.978 44V36.3549H179.509C180.367 36.3549 181.896 36.3549 182.887 37.7806C183.414 38.5038 183.59 39.32 183.59 40.1568C183.59 42.2437 182.557 44 179.654 44H176.978ZM178.931 38.0699V42.285H179.767C181.224 42.285 181.637 41.2726 181.637 40.1878C181.637 39.7539 181.544 39.2063 181.265 38.7724C181.038 38.4315 180.646 38.0699 179.778 38.0699H178.931ZM188.067 42.8946L187.716 44H185.598L188.625 36.3549H190.309L193.243 44H191.105L190.743 42.8946H188.067ZM190.237 41.3449L189.379 38.6794L188.553 41.3449H190.237ZM196.397 44V38.0699H194.888V36.3549H199.847V38.0699H198.349V44H196.397ZM203.954 42.8946L203.602 44H201.484L204.511 36.3549H206.195L209.129 44H206.991L206.629 42.8946H203.954ZM206.123 41.3449L205.266 38.6794L204.439 41.3449H206.123ZM211.979 44V36.3549H214.789C215.574 36.3549 216.204 36.5305 216.638 36.8715C217.083 37.2021 217.32 37.7083 217.32 38.3592C217.32 38.948 217.052 39.5473 216.432 39.8985C217.661 40.3324 217.692 41.3552 217.692 41.6755C217.692 42.285 217.454 42.9565 216.99 43.3388C216.287 43.9277 215.781 44 214.489 44H211.979ZM213.932 38.0699V39.258H214.624C214.758 39.258 214.965 39.258 215.14 39.1857C215.316 39.103 215.45 38.948 215.45 38.6484C215.45 38.3592 215.316 38.2145 215.151 38.1422C214.985 38.0699 214.779 38.0699 214.624 38.0699H213.932ZM213.932 40.8903V42.285H214.851C214.975 42.285 215.223 42.285 215.43 42.192C215.647 42.0991 215.822 41.9131 215.822 41.5515C215.822 41.2209 215.657 41.0556 215.45 40.973C215.254 40.8903 215.006 40.8903 214.851 40.8903H213.932ZM222.291 42.8946L221.94 44H219.822L222.849 36.3549H224.533L227.467 44H225.329L224.967 42.8946H222.291ZM224.461 41.3449L223.603 38.6794L222.777 41.3449H224.461ZM229.883 41.4689H231.825C231.825 42.3573 232.373 42.5123 232.621 42.5123C233.086 42.5123 233.365 42.1301 233.365 41.7788C233.365 41.3759 233.044 41.2519 231.866 40.756C231.329 40.539 229.997 40.0018 229.997 38.5658C229.997 37.0264 231.391 36.2103 232.672 36.2103C233.726 36.2103 235.214 36.7475 235.245 38.5865H233.313C233.272 38.3282 233.21 37.8426 232.61 37.8426C232.269 37.8426 231.939 38.0802 231.939 38.4418C231.939 38.7931 232.145 38.8861 233.519 39.5059C234.945 40.1465 235.307 40.8077 235.307 41.6961C235.307 42.9152 234.666 44.1446 232.641 44.1446C230.637 44.1446 229.831 42.9669 229.883 41.4689ZM238.305 44V36.3549H242.634V38.0699H240.258V39.258H242.562V40.973H240.258V42.285H242.634V44H238.305Z" fill="#03B09F"/>
<defs>
<linearGradient id="paint0_linear_330_189" x1="-2.07614" y1="25.4096" x2="49.9007" y2="25.4096" gradientUnits="userSpaceOnUse">
<stop stop-color="#ABC432"/>
<stop offset="0.06" stop-color="#A6C43D"/>
<stop offset="0.18" stop-color="#9AC55A"/>
<stop offset="0.32" stop-color="#87C68A"/>
<stop offset="0.5" stop-color="#6CC8CD"/>
<stop offset="0.56" stop-color="#78C7AE"/>
<stop offset="0.66" stop-color="#8AC682"/>
<stop offset="0.76" stop-color="#98C55F"/>
<stop offset="0.85" stop-color="#A2C446"/>
<stop offset="0.93" stop-color="#A8C437"/>
<stop offset="1" stop-color="#ABC432"/>
</linearGradient>
</defs>
</svg>
